<?xml version="1.0" encoding="utf-8"?>
<svg xmlns="http://www.w3.org/2000/svg" viewBox="-221.884 58.299 321.623 392.104">
  <g transform="matrix(0.099364, 0, 0, -0.113164, -248.996613, 797.072021)" fill="#000000" stroke="none" style="">
    <path d="M1740 6016 c-71 -20 -127 -53 -183 -108 -47 -46 -50 -51 -32 -58 38 -16 185 -10 286 11 56 11 103 18 106 16 6 -7 -138 -62 -217 -82 -48 -13 -86 -16 -146 -11 l-82 6 -4 -36 c-8 -71 43 -129 126 -145 85 -16 175 13 356 112 145 80 175 77 59 -6 -146 -103 -179 -123 -249 -145 -159 -51 -322 8 -344 124 -4 20 -11 36 -15 36 -4 0 -26 -12 -49 -27 -89 -60 -132 -150 -132 -272 0 -78 22 -133 76 -191 38 -40 123 -90 156 -90 23 0 24 -32 2 -70 -15 -24 -107 -90 -128 -90 -10 0 -377 -169 -404 -187 -28 -18 -61 -87 -62 -128 0 -38 51 -237 144 -565 40 -140 77 -271 82 -290 l10 -35 766 -3 c459 -1 776 2 791 7 24 9 127 144 127 166 0 6 -56 39 -125 74 -69 35 -125 70 -125 77 0 8 2 14 4 14 11 0 79 -27 132 -51 34 -16 66 -29 70 -29 5 1 33 32 63 70 29 38 76 95 105 127 49 54 142 172 160 201 6 9 -50 12 -268 12 l-275 0 -68 -87 c-37 -49 -152 -190 -256 -315 -179 -216 -190 -228 -223 -228 -37 0 -43 10 -17 31 23 20 306 350 302 353 -14 9 -89 27 -104 25 -12 -3 -25 -26 -40 -72 -13 -37 -29 -75 -36 -83 -20 -25 -161 -104 -184 -104 -15 0 -31 18 -59 70 -35 65 -39 90 -15 90 6 0 30 14 54 31 46 33 59 57 70 124 3 22 15 72 26 110 l20 70 110 44 110 44 59 -42 60 -42 -5 58 c-2 32 -7 91 -10 130 -3 40 -13 91 -22 114 -18 46 -11 42 -251 139 -79 32 -146 60 -148 63 -3 3 8 8 25 12 28 6 53 32 108 113 13 18 34 45 48 60 32 35 81 128 90 172 4 19 26 64 50 100 23 36 48 83 55 104 36 113 -51 313 -181 416 -89 70 -234 98 -349 66z m429 -403 c5 -27 12 -68 13 -93 3 -44 2 -45 -42 -66 -25 -12 -52 -30 -61 -40 -19 -23 -49 -128 -49 -173 0 -28 -3 -32 -17 -26 -10 4 -27 10 -37 13 -18 5 -17 3 2 -16 33 -33 19 -51 -46 -54 -30 -2 -57 -8 -59 -14 -2 -7 16 -20 42 -29 52 -20 57 -40 21 -74 -54 -51 -137 -19 -244 92 -71 74 -101 133 -102 195 0 23 -4 42 -8 42 -5 0 -27 17 -50 38 -29 27 -42 47 -42 65 0 33 13 34 69 2 23 -14 45 -25 47 -25 2 0 4 14 4 30 l0 30 83 0 c100 0 157 -16 217 -59 25 -18 46 -27 48 -21 7 19 -21 43 -83 71 l-60 27 45 7 c25 4 97 33 160 64 63 32 120 59 127 60 6 0 16 -20 22 -46z m-550 -500 c7 -16 48 -66 92 -113 l81 -85 -26 -75 c-15 -41 -31 -79 -36 -84 -9 -9 -38 33 -97 146 -31 59 -43 94 -48 147 -7 67 -3 91 14 91 5 0 14 -12 20 -27z m-53 -266 c45 -67 96 -148 114 -180 30 -54 31 -59 16 -76 -22 -24 -20 -53 4 -79 16 -17 20 -34 19 -94 -1 -127 -11 -123 -61 29 -51 151 -109 314 -157 438 -35 91 -33 85 -23 85 4 0 44 -55 88 -123z m319 -67 c8 -99 -20 -420 -35 -420 -11 0 -20 67 -20 146 0 39 -5 86 -11 104 -10 26 -7 57 11 164 12 72 25 138 27 146 9 26 21 -34 28 -140z m145 -200 c70 -48 80 -60 46 -60 -43 0 -156 66 -156 92 0 21 57 4 110 -32z m870 -182 c0 -29 -19 -33 -150 -33 -135 0 -137 0 -131 34 0 5 64 10 141 10 108 1 140 -1 140 -11z m-1141 -402 c43 -80 41 -98 -15 -137 -54 -37 -179 -63 -193 -40 -9 14 -43 163 -39 166 2 1 36 14 76 28 40 15 85 33 100 41 32 17 32 17 71 -58z m764 53 c156 -79 208 -111 196 -125 -9 -11 -18 -10 -52 7 -77 39 -207 120 -207 130 0 14 17 11 63 -12z m166 -165 c3 -3 -2 -12 -11 -20 -14 -14 -20 -14 -59 7 -34 17 -173 105 -198 125 -1 1 0 8 4 14 4 7 50 -12 133 -56 70 -36 129 -68 131 -70z m-177 8 c46 -26 91 -51 101 -55 27 -10 20 -27 -11 -27 -32 0 -166 85 -186 118 -13 22 11 13 96 -36z"/>
    <path d="M1762 5423 c5 -28 95 -83 134 -83 55 0 39 30 -38 73 -55 32 -101 36 -96 10z"/>
    <path d="M3948 5383 l-88 -4 0 -64 0 -65 75 0 75 0 0 -190 0 -190 90 0 90 0 2 193 3 192 71 3 72 3 5 52 c2 28 2 57 0 64 -5 13 -153 15 -395 6z"/>
    <path d="M4712 5369 c-163 -52 -228 -226 -141 -377 56 -98 179 -146 311 -122 149 27 227 117 228 261 0 194 -186 305 -398 238z m199 -147 c49 -55 46 -153 -7 -203 -20 -19 -36 -24 -79 -24 -43 0 -59 5 -79 24 -51 48 -57 141 -14 196 28 36 54 46 108 41 34 -3 51 -11 71 -34z"/>
    <path d="M5353 5382 c-21 -3 -22 -5 -19 -170 2 -92 4 -206 5 -254 l1 -88 153 0 c228 0 307 32 362 145 24 49 27 64 23 125 -9 115 -79 202 -188 229 -35 9 -294 19 -337 13z m256 -128 c99 -20 132 -163 55 -235 -21 -20 -36 -24 -87 -24 l-62 0 -3 119 c-1 66 0 126 2 133 6 14 45 17 95 7z"/>
    <path d="M6275 5373 c-75 -26 -149 -102 -170 -176 -57 -197 120 -368 339 -328 72 13 114 33 155 73 125 122 97 324 -57 411 -68 38 -188 47 -267 20z m176 -136 c65 -43 75 -148 20 -206 -94 -101 -239 -1 -201 138 22 83 110 116 181 68z"/>
    <path d="M7817 5376 c-67 -19 -126 -63 -162 -121 -27 -43 -30 -57 -30 -129 0 -91 13 -123 72 -182 96 -96 274 -108 396 -26 116 77 141 249 54 364 -66 86 -212 128 -330 94z m148 -131 c41 -20 60 -56 60 -114 0 -88 -43 -141 -112 -141 -67 1 -123 63 -123 137 0 105 83 161 175 118z"/>
    <path d="M8438 5383 c-2 -5 -2 -122 0 -260 l3 -253 69 0 70 0 0 112 c0 67 4 108 9 103 5 -6 32 -53 60 -107 54 -101 72 -116 127 -102 20 5 37 29 82 118 l57 111 3 -117 3 -118 74 0 75 0 0 260 0 260 -77 0 c-43 0 -83 -4 -88 -8 -6 -4 -39 -70 -74 -147 -35 -77 -67 -144 -71 -149 -9 -9 -75 116 -125 237 l-28 67 -83 0 c-46 0 -84 -3 -86 -7z"/>
    <path d="M6910 5124 l0 -256 193 4 c158 3 198 6 224 20 51 29 73 64 73 121 0 45 -4 54 -39 88 l-40 37 31 24 c26 21 32 32 35 79 4 45 1 59 -18 83 -39 50 -70 56 -274 56 l-185 0 0 -256z m294 124 c20 -28 20 -33 0 -52 -10 -11 -34 -16 -70 -16 l-54 0 0 45 0 45 54 0 c45 0 58 -4 70 -22z m10 -191 c25 -18 17 -58 -14 -74 -14 -7 -45 -12 -70 -11 l-45 3 -3 48 -3 47 59 0 c32 0 66 -6 76 -13z"/>
    <path d="M4600 4631 c0 -14 8 -21 28 -23 27 -3 27 -4 30 -85 l3 -83 29 0 30 0 0 85 0 85 30 0 c23 0 30 4 30 20 0 19 -7 20 -90 20 -82 0 -90 -2 -90 -19z"/>
    <path d="M4922 4622 c-40 -38 -49 -83 -25 -125 57 -96 212 -65 213 43 0 93 -120 146 -188 82z m113 -37 c14 -13 25 -31 25 -38 0 -27 -35 -59 -65 -59 -52 0 -74 63 -35 102 26 26 46 25 75 -5z"/>
    <path d="M5236 4634 c-3 -9 -6 -56 -6 -105 l0 -89 64 0 c81 0 126 27 141 84 11 48 -5 81 -55 107 -45 24 -135 26 -144 3z m132 -52 c22 -29 11 -75 -21 -90 -46 -22 -57 -11 -57 59 l0 62 33 -7 c17 -3 38 -14 45 -24z"/>
    <path d="M5598 4634 c-35 -19 -48 -43 -48 -93 0 -59 32 -92 96 -98 37 -3 57 1 81 16 39 25 60 82 44 123 -22 58 -113 85 -173 52z m90 -40 c15 -10 22 -25 22 -48 0 -39 -15 -56 -50 -56 -14 0 -31 5 -38 12 -17 17 -15 74 4 92 19 20 34 20 62 0z"/>
    <path d="M6050 4625 c0 -21 5 -25 30 -25 l30 0 0 -80 0 -80 30 0 30 0 0 85 0 85 30 0 c23 0 30 4 30 20 0 19 -7 20 -90 20 -89 0 -90 0 -90 -25z"/>
    <path d="M6359 4621 c-41 -41 -41 -106 -1 -143 50 -47 107 -48 162 -1 24 20 30 33 30 65 0 50 -13 74 -50 93 -49 25 -107 20 -141 -14z m116 -36 c29 -28 31 -42 9 -73 -17 -24 -62 -30 -82 -10 -21 21 -15 75 10 92 30 21 35 20 63 -9z"/>
    <path d="M6670 4546 l0 -106 55 0 c77 0 122 21 141 65 34 82 -15 137 -126 143 l-70 4 0 -106z m130 44 c37 -37 20 -94 -31 -105 -44 -10 -53 4 -45 69 7 51 10 56 32 56 13 0 33 -9 44 -20z"/>
    <path d="M7026 4629 c-51 -40 -56 -105 -11 -153 66 -72 195 -28 195 66 0 52 -15 77 -55 94 -49 20 -98 17 -129 -7z m112 -42 c6 -5 12 -25 12 -43 0 -63 -70 -81 -100 -24 -15 28 -13 38 14 65 25 25 44 25 74 2z"/>
    <path d="M7500 4546 l0 -106 64 0 c36 0 76 4 89 9 36 14 44 47 17 76 -18 19 -19 23 -6 28 23 9 20 51 -5 73 -15 13 -40 20 -90 22 l-69 4 0 -106z m118 42 c3 -14 -3 -18 -27 -18 -25 0 -31 4 -31 21 0 16 5 20 27 17 17 -2 29 -10 31 -20z m-14 -64 c28 -11 18 -34 -14 -34 -23 0 -30 4 -30 20 0 20 15 25 44 14z"/>
    <path d="M7831 4615 c-49 -56 -38 -130 24 -160 85 -40 164 5 165 93 0 36 -5 49 -31 73 -25 24 -40 29 -79 29 -42 0 -52 -4 -79 -35z m117 -27 c7 -7 12 -26 12 -43 0 -38 -16 -55 -50 -55 -34 0 -50 17 -50 55 0 38 16 55 50 55 14 0 31 -5 38 -12z"/>
    <path d="M8145 4641 c-6 -11 -5 -108 2 -162 3 -30 8 -36 26 -35 19 1 23 8 27 51 l5 50 13 -38 c14 -38 36 -67 52 -67 5 0 18 19 28 43 l19 42 7 -42 c7 -37 11 -43 32 -43 l25 0 -3 103 -3 102 -27 3 c-24 3 -29 -3 -54 -58 l-27 -61 -31 53 c-16 29 -35 56 -40 60 -15 11 -44 10 -51 -1z"/>
    <path d="M2155 4459 c-64 -34 -66 -42 -10 -34 78 12 105 7 157 -30 51 -37 61 -31 28 15 -20 28 -93 70 -121 70 -8 0 -32 -9 -54 -21z"/>
    <path d="M2370 4371 c0 -25 18 -37 33 -22 9 9 8 11 -5 6 -13 -5 -15 -2 -11 14 3 12 1 21 -6 21 -6 0 -11 -9 -11 -19z"/>
    <path d="M2191 4369 c-63 -12 -63 -19 2 -19 49 0 61 -4 92 -32 24 -21 35 -37 32 -50 -7 -24 0 -23 13 2 12 22 5 60 -11 60 -6 0 -25 11 -43 25 -18 14 -35 25 -37 24 -2 -1 -24 -5 -48 -10z"/>
    <path d="M2170 4290 c0 -5 8 -10 18 -10 9 0 35 -12 56 -26 28 -19 41 -23 49 -15 19 19 -39 61 -85 61 -21 0 -38 -4 -38 -10z"/>
  </g>
</svg>